<svg xmlns="http://www.w3.org/2000/svg" width="27" height="540" viewBox="0, 0, 27, 540"><path d="M16 497h1.5v7.6H16zm-6.2 7.6h1.5V497H9.8zm3.1 0h1.5V497h-1.5zm3.1-11.9c.1 0 .2.1.2.2v.9h-5.1v-.9c0-.1.1-.2.2-.2H16zm2.4 3.3v10.4c0 .1-.1.2-.2.2H8.9c-.1 0-.2-.1-.2-.2V496h9.7zm-2.3-4.8h-4.7c-1 0-1.7.8-1.7 1.7v.9H6.2v2.2h1.1v10.4c0 1 .8 1.7 1.7 1.7h9.3c.4 0 .8-.2 1-.5.3-.3.5-.8.5-1.2V496H21v-2.2h-3.2v-.9c0-.5-.2-.9-.5-1.2-.3-.3-.8-.5-1.2-.5zM19.04 467.32l1.554 1.555-6.478 6.478.017.017-1.556 1.556-4.808-4.808 1.555-1.556 3.236 3.236 6.48-6.478zM10.3 438.9h10.6v2.2H10.3zm-4.4 12h14.9v-2.2H5.9zm3.3-3.3h11.7v-2.2H9.2zM7 444.4h13.8v-2.2H7zM5.6 411.2h10.6v2.2H5.6zm0 11.9h14.9v-2.2H5.6zm0-3.2h11.7v-2.2H5.6zm0-3.3h13.8v-2.2H5.6zM10.3 385h6.2v2.2h-6.2zm-4.4 12h14.9v-2.2H5.9zm3.3-3.3h8.4v-2.2H9.2zM7 390.5h12.7v-2.2H7zM5.6 358.8h14.9v2.2H5.6m0 9.8h14.9v-2.2H5.6m0-1.1h14.9v-2.2H5.6m0-1h14.9v-2.2H5.6" fill="#FFF"/><g fill="#FFF"><path d="M19.7 332.7h6.2l-3.1 3.4zM19.7 341.4h6.2l-3.1-3.3zM10.1 332.7h6.1l-3.1 3.4zm3 8.7l3.1-3.3h-6.1zM.4 336.1h6.2l-3.1-3.4zm3.1 2l3.1 3.3H.4z"/></g><path d="M5.8 317.5H23v3.2H5.8z" fill="#FF8080"/><path d="M15.7 310h-4.9l-.9 2c-.2.5-.3.9-.3 1.1 0 .2.1.4.3.5.2.1.6.2 1.2.3v.3h-4v-.3c.5-.1.9-.2 1-.4.3-.3.7-.9 1-1.8l4.4-10.3h.3l4.4 10.4c.4.8.7 1.4 1 1.6.3.2.7.4 1.2.4v.3h-5v-.3c.5 0 .8-.1 1-.3.2-.1.3-.3.3-.5 0-.3-.1-.7-.4-1.3l-.6-1.7zm-.3-.7l-2.1-5.1-2.2 5.1h4.3zM16.9 279.2v-1.4h5.5v1.4h-5.5zm-4 4.8H8.6l2.2-5.1 2.1 5.1zm.3.7l.6 1.7c.3.6.4 1 .4 1.3 0 .2-.1.4-.3.5-.2.2-.5.3-1 .3v.3h5v-.3c-.5 0-.9-.2-1.2-.4-.3-.2-.6-.8-1-1.6l-4.4-10.4H11l-4.4 10.3c-.3.9-.7 1.5-1 1.8-.1.2-.5.3-1 .4v.3h4v-.3c-.6-.1-1-.2-1.2-.3-.2-.1-.3-.3-.3-.5s.1-.6.3-1.1l.9-2h4.9zM13.2 258.7H8.3l-.9 2c-.2.5-.3.9-.3 1.1 0 .2.1.4.3.5.2.1.6.2 1.2.3v.3h-4v-.3c.5-.1.9-.2 1-.4.3-.3.7-.9 1-1.8l4.4-10.3h.3l4.4 10.4c.4.8.7 1.4 1 1.6.3.2.7.4 1.2.4v.3h-5v-.3c.5 0 .8-.1 1-.3.2-.1.3-.3.3-.5 0-.3-.1-.7-.4-1.3l-.6-1.7zm-.3-.7l-2.1-5.1-2.2 5.1h4.3zm6.1-2.8h1.4v-2h2.1v-1.4h-2.1v-2H19v2h-2.1v1.4H19v2zM8.7 232.3v-5.2l-2.9 2.6zm-2.9-6.4h15v-2.2h-15zm0 9.8h15v-2.2h-15zm5.4-3.3h9.6v-2.2h-9.6zm0-3.2h9.6V227h-9.6zM5.8 195.6h15v2.2h-15zm0 12h15v-2.2h-15zm5.4-3.3h9.6v-2.2h-9.6zm0-3.2h9.6v-2.2h-9.6zm-2.5.5L5.8 199v5.2zM16.1 169.2l4.9 5.1-4.9 5v-2.9h-4.2s-3.5 0-3.5 3.5v2.5s-1.2-1.7-1.2-4.6c0-2.9 2-5.8 6.9-5.8h2v-2.8zM11.1 141.7v2.8h2c4.9 0 6.9 2.9 6.9 5.8s-1.2 4.6-1.2 4.6v-2.5c0-3.5-3.5-3.5-3.5-3.5h-4.2v2.9l-5-5 5-5.1zM9.9 124.9h10.8v2.2H9.9zm0-2.1h10.8v-2.2H9.9zm0-4.4h10.8v-2.2H9.9zm-1.4-1.1c0-.718-.582-1.3-1.3-1.3-.718 0-1.3.582-1.3 1.3 0 .718.582 1.3 1.3 1.3.718 0 1.3-.582 1.3-1.3zm0 4.4c0-.718-.582-1.3-1.3-1.3-.718 0-1.3.582-1.3 1.3 0 .718.582 1.3 1.3 1.3.718 0 1.3-.582 1.3-1.3zm0 4.3c0-.718-.582-1.3-1.3-1.3-.718 0-1.3.582-1.3 1.3 0 .718.582 1.3 1.3 1.3.718 0 1.3-.582 1.3-1.3zM9.9 88.9h10.8v2.2H9.9zm0 10.9h10.8v-2.2H9.9zm0-4.4h10.8v-2.2H9.9zm-1.5-4.3v-.7h-.9v-3.5h-.9c0 .1-.1.2-.1.3 0 .1-.1.2-.2.2-.1.1-.2.1-.3.1h-.4v.7h.9v2.2h-.9v.7h2.8zm.3 5.4v-.9H6.8c.1-.1.2-.2.4-.3.2-.1.3-.2.5-.4.3-.2.5-.5.6-.7.1-.3.2-.5.2-.8 0-.4-.1-.7-.4-.9-.3-.2-.7-.3-1.2-.3-.3 0-.5 0-.8.1-.3.1-.5.1-.6.2v.9h.1c.1-.1.3-.2.5-.3.1-.1.3-.1.5-.1s.4.1.5.2c.1.1.2.2.2.4s0 .3-.1.5-.3.4-.5.6c-.1.1-.3.3-.6.5s-.5.4-.8.6v.7h3.4zm-3.3 2.1v1.1h2.1l-1.4.9v.7c.3-.1.6-.1.9-.1.3 0 .5.1.7.2.1.1.2.3.2.5s-.1.4-.3.5c-.1.1-.3.2-.6.2s-.5-.1-.8-.2c-.2-.1-.3-.2-.5-.4h-.1v.4c0 .1-.1.2-.1.3.2.2.4.3.7.4.3.1.6.1.9.1.5 0 1-.1 1.3-.4.3-.3.5-.7.5-1.1 0-.4-.2-.7-.4-.9-.3-.2-.6-.3-1-.3H7l1.6-1v-.9H5.4zM9.266 60.99c1.132.097.667-.056 1.434.31 0 0 .5.3 1.3 1 1.2 1.1 1.6 1.9 1.6 2.8-.027.626-.144 1.19-.59 1.71l.888.888c.524-.5 1.16-.544 1.802-.598.9-.1 1.7.4 2.8 1.6.7.8 1 1.3 1 1.4.4.6.4 1.3.2 1.7-.2.4-.4.7-1.2 1.5-.8.8-1.1 1.1-1.5 1.2-.3.1-.5.1-.8.1-.4 0-.7-.1-1.1-.3 0 0-.5-.3-1.3-1-1.2-1.1-1.6-1.9-1.6-2.8-.007-.664.25-1.31.684-1.816l-.873-.873c-.51.513-1.23.633-1.91.69H10c-.8 0-1.6-.5-2.6-1.6-.7-.8-1-1.3-1-1.4-.4-.6-.4-1.3-.2-1.7.2-.4.4-.7 1.2-1.5.8-.8 1.1-1.1 1.5-1.2l.366-.11zM15.9 68.4c-.83.222-.535.057-.96.34l.36.36c.3.3.3.7 0 1-.1.2-.3.2-.5.2s-.4-.1-.5-.2l-.353-.353c-.263.633-.207.342-.247.853 0 .2 0 .6 1.1 1.6.7.6 1.1.8 1.1.8.3.2.5.1.5.1.2-.1.5-.3 1.1-1 .6-.6.9-.9 1-1.1 0 0 .1-.2-.1-.4 0-.1-.3-.5-.9-1.1-1.1-1.2-1.4-1.1-1.6-1.1zm-6.364-6.113L9.5 62.3c-.2.1-.5.3-1.1 1-.5.6-.8.9-.9 1.1 0 0-.1.2.1.4 0 .1.3.5.9 1.1 1.1 1.2 1.4 1.1 1.6 1.1.508-.04.22.018.843-.257L10.6 66.4c-.3-.3-.3-.7 0-1 .3-.3.7-.3 1 0l.33.33c.293-.68.23-.363.27-.93 0-.2 0-.6-1.1-1.6-.7-.6-1.1-.8-1.1-.8-.282-.138-.13-.096-.464-.113zM14.5 45.9l-.1.3H9.2l.1-.3c.5 0 .9-.1 1-.1.3-.1.5-.3.6-.4.2-.3.4-.8.6-1.6l2.2-7.6c.2-.6.3-1.1.3-1.4 0-.2 0-.3-.1-.4-.1-.1-.2-.2-.4-.3-.2-.1-.5-.1-1-.1l.1-.3h4.9v.3c-.4 0-.7 0-.9.1-.3.1-.5.3-.6.5-.1.2-.3.7-.6 1.5l-2.2 7.6c-.2.7-.3 1.1-.3 1.3 0 .2 0 .3.1.4.1.1.2.2.4.2.2.2.5.2 1.1.3zM16 13.6c1.2.3 2 .6 2.5 1 .7.6 1 1.3 1 2.2 0 .9-.4 1.7-1.1 2.3-.9.7-2.3 1.1-4.1 1.1H7.9v-.3c.6 0 1-.1 1.2-.2.2-.1.4-.2.4-.4.1-.2.1-.6.1-1.3V9.8c0-.7 0-1.1-.1-1.3-.1-.2-.2-.3-.4-.4-.2 0-.6-.1-1.1-.1v-.3h6c1.4 0 2.5.1 3.1.4.6.3 1.1.6 1.4 1.1.3.5.5 1.1.5 1.6 0 .6-.2 1.1-.7 1.6-.4.5-1.2.9-2.3 1.2zm-3.4.5v4.5c0 .3.1.6.3.8.2.2.4.3.8.3.5 0 .9-.1 1.4-.3.4-.2.7-.5 1-1 .2-.4.3-.9.3-1.4 0-.6-.1-1.1-.4-1.6-.3-.5-.6-.8-1.1-1-.6-.3-1.3-.3-2.3-.3zm0-.8c.9 0 1.5-.1 1.9-.3.4-.2.7-.5 1-.8.2-.4.3-.8.3-1.4 0-.6-.1-1-.3-1.4-.2-.4-.5-.6-.9-.8-.4-.2-1.1-.3-2-.3v5z" fill="#FFF"/></svg>